<?xml version="1.0" encoding="UTF-8"?>
<!DOCTYPE svg PUBLIC "-//W3C//DTD SVG 1.1//EN" "http://www.w3.org/Graphics/SVG/1.1/DTD/svg11.dtd">
<svg xmlns="http://www.w3.org/2000/svg" version="1.1" width="57px" height="53px" style="shape-rendering:geometricPrecision; text-rendering:geometricPrecision; image-rendering:optimizeQuality; fill-rule:evenodd; clip-rule:evenodd" xmlns:xlink="http://www.w3.org/1999/xlink">
<g><path style="opacity:0.472" fill="#beac8d" d="M 47.5,-0.5 C 49.5,-0.5 51.5,-0.5 53.5,-0.5C 54.6588,0.740292 55.6588,2.07363 56.5,3.5C 56.5,5.83333 56.5,8.16667 56.5,10.5C 51.887,14.9392 47.0536,19.2725 42,23.5C 40.8025,31.4385 40.1358,39.4385 40,47.5C 39.6339,49.4517 38.8005,51.1184 37.5,52.5C 35.5,52.5 33.5,52.5 31.5,52.5C 29.551,47.0313 28.3844,41.3646 28,35.5C 23.0076,39.4979 18.0076,43.4979 13,47.5C 9.52718,45.8637 7.36052,43.197 6.5,39.5C 4.19438,39.0074 1.86105,38.6741 -0.5,38.5C -0.5,35.1667 -0.5,31.8333 -0.5,28.5C 5.68753,28.2026 11.6875,27.036 17.5,25C 14.0072,23.2094 10.3405,21.876 6.5,21C 2.67297,18.0947 2.67297,15.0947 6.5,12C 14.2745,11.7396 21.9412,12.5729 29.5,14.5C 35.5441,9.44723 41.5441,4.44723 47.5,-0.5 Z M 13.5,40.5 C 14.7279,38.9902 14.7279,37.4902 13.5,36C 10.1815,35.1208 6.84817,34.2875 3.5,33.5C 7.45922,32.6735 11.4592,32.1735 15.5,32C 25.4752,23.6964 35.4752,15.363 45.5,7C 47.01,6.15019 48.51,5.31686 50,4.5C 52.9948,5.51761 53.3281,7.18428 51,9.5C 48.323,12.5092 45.323,15.1758 42,17.5C 40.3333,14.8333 38.6667,14.8333 37,17.5C 36.7956,27.5369 36.129,37.5369 35,47.5C 33.5035,40.1934 32.1702,32.86 31,25.5C 27.1667,24 26,25.1667 27.5,29C 23.2311,33.4468 18.5645,37.2801 13.5,40.5 Z M 10.5,17.5 C 10.7352,16.9033 11.2352,16.5699 12,16.5C 15.9858,16.9724 19.8191,17.8057 23.5,19C 22.6667,19.8333 21.8333,20.6667 21,21.5C 17.8159,19.3293 14.3159,17.996 10.5,17.5 Z"/></g>
</svg>
