<?xml version="1.0" encoding="UTF-8"?>
<!DOCTYPE svg PUBLIC "-//W3C//DTD SVG 1.1//EN" "http://www.w3.org/Graphics/SVG/1.1/DTD/svg11.dtd">
<svg xmlns="http://www.w3.org/2000/svg" version="1.1" width="60px" height="51px" style="shape-rendering:geometricPrecision; text-rendering:geometricPrecision; image-rendering:optimizeQuality; fill-rule:evenodd; clip-rule:evenodd" xmlns:xlink="http://www.w3.org/1999/xlink">
<g><path style="opacity:0.746" fill="#bead8e" d="M 14.5,-0.5 C 15.8333,-0.5 17.1667,-0.5 18.5,-0.5C 19.9288,2.30843 20.5955,5.30843 20.5,8.5C 21.2674,7.82803 21.9341,6.9947 22.5,6C 21.3313,3.99348 20.6646,1.82682 20.5,-0.5C 21.8333,-0.5 23.1667,-0.5 24.5,-0.5C 24.7239,1.78672 25.3906,3.95339 26.5,6C 25.4958,8.3504 24.4958,10.6837 23.5,13C 26.8546,14.1499 27.8546,13.3165 26.5,10.5C 26.722,8.94458 27.3887,7.61125 28.5,6.5C 27.0541,4.3821 26.3874,2.04877 26.5,-0.5C 27.5,-0.5 28.5,-0.5 29.5,-0.5C 33.4443,3.96824 33.4443,8.46824 29.5,13C 32.6592,13.0114 35.4926,13.8447 38,15.5C 38.3333,18.8333 38.6667,22.1667 39,25.5C 41.8407,24.5796 44.674,23.5796 47.5,22.5C 48.9643,19.997 50.131,17.3303 51,14.5C 51.5613,13.9781 52.228,13.6448 53,13.5C 56.0936,15.0891 58.2602,17.4224 59.5,20.5C 59.5,24.5 59.5,28.5 59.5,32.5C 58.1221,35.4202 56.4554,38.2535 54.5,41C 56.2475,41.3519 57.9142,41.8519 59.5,42.5C 59.5,44.8333 59.5,47.1667 59.5,49.5C 58.8333,49.5 58.5,49.8333 58.5,50.5C 40.5,50.5 22.5,50.5 4.5,50.5C 0.747042,43.8992 2.74704,40.8992 10.5,41.5C 10.5,40.5 10.5,39.5 10.5,38.5C 5.9494,39.3417 2.28273,38.0083 -0.5,34.5C -0.5,29.8333 -0.5,25.1667 -0.5,20.5C 0.961599,19.5423 2.29493,18.3756 3.5,17C 7.5,15.6667 11.5,14.3333 15.5,13C 14.1337,10.6182 14.467,8.45153 16.5,6.5C 15.0541,4.3821 14.3874,2.04877 14.5,-0.5 Z M 20.5,8.5 C 20.2865,10.1439 20.6198,11.6439 21.5,13C 20.1667,13.6667 18.8333,13.6667 17.5,13C 18.0527,11.1222 19.0527,9.62219 20.5,8.5 Z M 12.5,17.5 C 19.8333,17.5 27.1667,17.5 34.5,17.5C 34.6646,20.5184 34.498,23.5184 34,26.5C 32.1239,23.5724 29.6239,22.9057 26.5,24.5C 25.0516,30.2642 26.385,35.2642 30.5,39.5C 25.5646,42.1122 20.5646,42.1122 15.5,39.5C 14.4164,38.3349 13.5831,37.0016 13,35.5C 12.5005,29.5092 12.3338,23.5092 12.5,17.5 Z M 52.5,18.5 C 53.2891,18.7828 53.9558,19.2828 54.5,20C 53.184,20.5281 52.5173,20.0281 52.5,18.5 Z M 6.5,24.5 C 7.69348,24.9704 8.36015,25.9704 8.5,27.5C 8.16667,28.5 7.83333,29.5 7.5,30.5C 6.53443,28.604 6.2011,26.604 6.5,24.5 Z M 50.5,24.5 C 52.1667,24.5 53.8333,24.5 55.5,24.5C 55.6621,26.5273 55.4955,28.5273 55,30.5C 52.8733,28.8863 51.3733,26.8863 50.5,24.5 Z M 44.5,27.5 C 56.9443,35.178 55.611,39.8446 40.5,41.5C 39.584,37.2077 39.584,32.8744 40.5,28.5C 42.099,28.7678 43.4324,28.4345 44.5,27.5 Z M 34.5,30.5 C 35.7479,31.3339 36.4146,32.6672 36.5,34.5C 36.3333,35.8333 36.1667,37.1667 36,38.5C 31.0616,36.1674 30.5616,33.5007 34.5,30.5 Z M 6.5,46.5 C 22.6715,45.1732 39.0049,45.1732 55.5,46.5C 39.1028,47.8168 22.7695,47.8168 6.5,46.5 Z"/></g>
</svg>
