<?xml version="1.0" encoding="UTF-8"?>
<!DOCTYPE svg PUBLIC "-//W3C//DTD SVG 1.1//EN" "http://www.w3.org/Graphics/SVG/1.1/DTD/svg11.dtd">
<svg xmlns="http://www.w3.org/2000/svg" version="1.1" width="54px" height="53px" style="shape-rendering:geometricPrecision; text-rendering:geometricPrecision; image-rendering:optimizeQuality; fill-rule:evenodd; clip-rule:evenodd" xmlns:xlink="http://www.w3.org/1999/xlink">
<g><path style="opacity:0.74" fill="#bead8d" d="M 20.5,-0.5 C 24.1667,-0.5 27.8333,-0.5 31.5,-0.5C 45.0121,7.52176 47.0121,18.0218 37.5,31C 40.2263,31.1816 42.8929,31.6816 45.5,32.5C 48.2169,38.59 50.8835,44.59 53.5,50.5C 53.5,50.8333 53.5,51.1667 53.5,51.5C 52.8333,51.5 52.5,51.8333 52.5,52.5C 34.8333,52.5 17.1667,52.5 -0.5,52.5C -0.5,51.1667 -0.5,49.8333 -0.5,48.5C 0.222348,47.4489 1.22235,46.7822 2.5,46.5C 2.38929,45.8826 2.05596,45.3826 1.5,45C 3.46219,40.9072 5.29552,36.7406 7,32.5C 9.405,31.7256 11.905,31.2256 14.5,31C 8.95527,23.2925 8.12194,15.1259 12,6.5C 14.4412,3.54644 17.2745,1.21311 20.5,-0.5 Z M 22.5,1.5 C 37.7824,2.04883 43.2824,9.7155 39,24.5C 36.1223,30.547 31.9556,35.547 26.5,39.5C 18.104,33.8835 13.104,26.0501 11.5,16C 12.178,8.77667 15.8447,3.94334 22.5,1.5 Z M 8.5,33.5 C 14.527,33.1676 14.8604,34.5009 9.5,37.5C 8.83333,37.3333 8.16667,37.1667 7.5,37C 8.33663,35.9887 8.66997,34.8221 8.5,33.5 Z M 15.5,33.5 C 16.6266,34.1217 17.6266,34.955 18.5,36C 15.5641,40.2637 12.8974,44.7637 10.5,49.5C 10.15,47.3498 10.8166,45.1831 12.5,43C 10.7148,41.8372 8.7148,41.1705 6.5,41C 12.303,41.6826 15.303,39.1826 15.5,33.5 Z M 35.5,33.5 C 38.2469,33.1866 40.9135,33.52 43.5,34.5C 43.8333,35.1667 44.1667,35.8333 44.5,36.5C 39.32,39.2528 39.9867,40.7528 46.5,41C 41.1771,41.4994 35.8437,41.666 30.5,41.5C 30.3505,42.552 30.5172,43.552 31,44.5C 33.1238,45.6217 34.9571,47.1217 36.5,49C 35.5,49.6667 34.5,49.6667 33.5,49C 31.3529,46.7632 29.0196,44.7632 26.5,43C 27.1667,42.3333 27.8333,41.6667 28.5,41C 32.0894,40.7931 35.5894,40.2931 39,39.5C 39.1667,39.1667 39.3333,38.8333 39.5,38.5C 37.5767,37.6922 35.5767,37.1922 33.5,37C 34.305,35.8873 34.9717,34.7206 35.5,33.5 Z M 17.5,39.5 C 21.625,42.4526 25.625,45.6193 29.5,49C 24.467,49.8289 19.467,49.6623 14.5,48.5C 15.801,45.5729 16.801,42.5729 17.5,39.5 Z M 2.5,46.5 C 4.24319,44.5636 6.24319,44.2302 8.5,45.5C 7.83318,48.8333 5.83318,50.1667 2.5,49.5C 2.5,48.5 2.5,47.5 2.5,46.5 Z M 35.5,45.5 C 39.6344,44.5151 43.9677,44.1818 48.5,44.5C 48.4208,45.9305 48.7542,47.2638 49.5,48.5C 46.5541,49.6548 43.5541,49.8214 40.5,49C 39.2107,47.1978 37.5441,46.0312 35.5,45.5 Z"/></g>
<g><path style="opacity:0.717" fill="#beac8d" d="M 23.5,8.5 C 33.1096,8.93592 35.7762,13.4359 31.5,22C 24.7189,25.1079 20.3855,23.1079 18.5,16C 18.3875,14.3376 19.0542,13.1709 20.5,12.5C 20.508,16.721 22.3413,19.721 26,21.5C 31.2896,19.7655 32.4563,16.5989 29.5,12C 27.2305,11.2419 25.0639,11.4086 23,12.5C 21.07,10.9229 21.2367,9.58956 23.5,8.5 Z"/></g>
</svg>
