<?xml version="1.0" encoding="UTF-8"?>
<!DOCTYPE svg PUBLIC "-//W3C//DTD SVG 1.1//EN" "http://www.w3.org/Graphics/SVG/1.1/DTD/svg11.dtd">
<svg xmlns="http://www.w3.org/2000/svg" version="1.1" width="53px" height="53px" style="shape-rendering:geometricPrecision; text-rendering:geometricPrecision; image-rendering:optimizeQuality; fill-rule:evenodd; clip-rule:evenodd" xmlns:xlink="http://www.w3.org/1999/xlink">
<g><path style="opacity:0.747" fill="#beac8e" d="M 13.5,5.5 C 21.8333,5.5 30.1667,5.5 38.5,5.5C 38.7852,7.28801 38.4519,8.95467 37.5,10.5C 36.6143,9.67504 36.281,8.67504 36.5,7.5C 35.325,7.28099 34.325,7.61432 33.5,8.5C 34.5312,9.70034 35.3645,11.0337 36,12.5C 36.414,12.0426 36.914,11.7093 37.5,11.5C 38.4841,14.4281 38.8174,17.4281 38.5,20.5C 30.1667,20.5 21.8333,20.5 13.5,20.5C 13.5,15.5 13.5,10.5 13.5,5.5 Z M 22.5,12.5 C 21.7932,16.3281 19.4599,17.9948 15.5,17.5C 15.5,14.1667 15.5,10.8333 15.5,7.5C 16.552,7.35055 17.552,7.51722 18.5,8C 15.5098,12.8525 16.8431,14.3525 22.5,12.5 Z M 22.5,12.5 C 22.7035,10.6096 22.0368,9.10963 20.5,8C 24.1667,7.33333 27.8333,7.33333 31.5,8C 30.624,9.58601 29.624,11.086 28.5,12.5C 26.4093,8.56053 24.4093,8.56053 22.5,12.5 Z M 31.5,12.5 C 33.3838,13.3816 34.7171,14.8816 35.5,17C 29.975,18.3081 28.6416,16.8081 31.5,12.5 Z M 24.5,13.5 C 26.1042,14.287 26.7709,15.6203 26.5,17.5C 25.325,17.719 24.325,17.3857 23.5,16.5C 24.1272,15.5832 24.4606,14.5832 24.5,13.5 Z"/></g>
<g><path style="opacity:0.754" fill="#bead8e" d="M 52.5,27.5 C 52.5,31.8333 52.5,36.1667 52.5,40.5C 50.5,40.5 48.5,40.5 46.5,40.5C 47.2647,45.9064 44.9313,47.9064 39.5,46.5C 39.5,45.1667 39.5,43.8333 39.5,42.5C 37.4727,42.6621 35.4727,42.4955 33.5,42C 35.9368,40.6253 38.6035,40.1253 41.5,40.5C 41.238,41.9778 41.5713,43.3112 42.5,44.5C 43.4656,42.604 43.7989,40.604 43.5,38.5C 31.8333,38.5 20.1667,38.5 8.5,38.5C 8.2011,40.604 8.53443,42.604 9.5,44.5C 10.4287,43.3112 10.762,41.9778 10.5,40.5C 17.8635,40.1694 25.1968,40.5027 32.5,41.5C 25.8665,42.4967 19.1998,42.83 12.5,42.5C 12.5,43.8333 12.5,45.1667 12.5,46.5C 7.06868,47.9064 4.73534,45.9064 5.5,40.5C 3.5,40.5 1.5,40.5 -0.5,40.5C -0.5,36.1667 -0.5,31.8333 -0.5,27.5C 0.5,27.5 1.5,27.5 2.5,27.5C 3.16667,25.5 3.83333,23.5 4.5,21.5C 3.16667,21.5 1.83333,21.5 0.5,21.5C -0.644371,14.175 2.35563,11.175 9.5,12.5C 9.96286,15.4824 10.2962,18.4824 10.5,21.5C 9.16667,21.5 7.83333,21.5 6.5,21.5C 7.04436,23.5795 7.8777,25.5795 9,27.5C 9.48278,26.552 9.64945,25.552 9.5,24.5C 12.2469,24.1866 14.9135,24.52 17.5,25.5C 15.604,26.4656 13.604,26.7989 11.5,26.5C 11.3398,28.1992 11.5065,29.8659 12,31.5C 12.3176,29.9391 13.1509,28.7724 14.5,28C 17.8333,27.3333 21.1667,27.3333 24.5,28C 25,28.5 25.5,29 26,29.5C 29.9181,27.2263 34.0847,26.893 38.5,28.5C 38.8333,28.1667 39.1667,27.8333 39.5,27.5C 32.5,26.8333 25.5,26.1667 18.5,25.5C 26.4723,24.5023 34.4723,24.169 42.5,24.5C 42.3505,25.552 42.5172,26.552 43,27.5C 44.1223,25.5795 44.9556,23.5795 45.5,21.5C 44.1667,21.5 42.8333,21.5 41.5,21.5C 41.7038,18.4824 42.0371,15.4824 42.5,12.5C 49.6444,11.175 52.6444,14.175 51.5,21.5C 50.1667,21.5 48.8333,21.5 47.5,21.5C 47.7637,24.7571 49.4304,26.7571 52.5,27.5 Z M 31.5,12.5 C 28.6416,16.8081 29.975,18.3081 35.5,17C 34.7171,14.8816 33.3838,13.3816 31.5,12.5 Z M 24.5,13.5 C 24.4606,14.5832 24.1272,15.5832 23.5,16.5C 24.325,17.3857 25.325,17.719 26.5,17.5C 26.7709,15.6203 26.1042,14.287 24.5,13.5 Z M 4.5,14.5 C 5.4959,14.4142 6.32924,14.7476 7,15.5C 7.30945,16.7659 7.80945,17.9326 8.5,19C 2.5781,20.7128 1.24476,19.2128 4.5,14.5 Z M 44.5,14.5 C 47.5406,14.4056 49.2072,15.9056 49.5,19C 47.5,19.6667 45.5,19.6667 43.5,19C 44.3802,17.6439 44.7135,16.1439 44.5,14.5 Z M 1.5,29.5 C 2.67504,29.281 3.67504,29.6143 4.5,30.5C 2.94835,31.7979 1.94835,31.4646 1.5,29.5 Z M 7.5,29.5 C 9.33702,29.6395 9.67036,30.3061 8.5,31.5C 7.70245,31.0431 7.36912,30.3764 7.5,29.5 Z M 42.5,29.5 C 44.337,29.6395 44.6704,30.3061 43.5,31.5C 42.7025,31.0431 42.3691,30.3764 42.5,29.5 Z M 47.5,29.5 C 48.675,29.281 49.675,29.6143 50.5,30.5C 48.9483,31.7979 47.9483,31.4646 47.5,29.5 Z M 1.5,33.5 C 3.16667,33.5 4.83333,33.5 6.5,33.5C 6.61623,36.9103 4.94956,38.2436 1.5,37.5C 1.5,36.1667 1.5,34.8333 1.5,33.5 Z M 9.5,33.5 C 20.5202,33.1679 31.5202,33.5012 42.5,34.5C 31.1813,35.6658 19.848,35.8325 8.5,35C 9.05596,34.6174 9.38929,34.1174 9.5,33.5 Z M 45.5,33.5 C 47.1667,33.5 48.8333,33.5 50.5,33.5C 50.5,34.8333 50.5,36.1667 50.5,37.5C 47.0504,38.2436 45.3838,36.9103 45.5,33.5 Z"/></g>
</svg>
