<svg width="208" height="16" viewBox="0 0 208 16" fill="none" xmlns="http://www.w3.org/2000/svg">
<path d="M5.27273 8.36364C5.59637 8.36364 5.91274 8.26767 6.18184 8.08786C6.45094 7.90805 6.66068 7.65249 6.78453 7.35348C6.90838 7.05448 6.94079 6.72546 6.87765 6.40803C6.81451 6.09061 6.65866 5.79904 6.42981 5.57019C6.20096 5.34134 5.90939 5.18549 5.59197 5.12235C5.27454 5.05921 4.94552 5.09162 4.64652 5.21547C4.34751 5.33932 4.09195 5.54906 3.91214 5.81816C3.73233 6.08726 3.63636 6.40363 3.63636 6.72727C3.63636 7.16126 3.80877 7.57748 4.11564 7.88436C4.42252 8.19124 4.83874 8.36364 5.27273 8.36364ZM5.27273 6.18182C5.38061 6.18182 5.48607 6.21381 5.57577 6.27374C5.66547 6.33368 5.73538 6.41887 5.77666 6.51854C5.81795 6.61821 5.82875 6.72788 5.8077 6.83369C5.78665 6.93949 5.7347 7.03668 5.65842 7.11297C5.58214 7.18925 5.48495 7.2412 5.37914 7.26225C5.27333 7.28329 5.16366 7.27249 5.06399 7.23121C4.96432 7.18992 4.87913 7.12001 4.8192 7.03031C4.75926 6.94061 4.72727 6.83515 4.72727 6.72727C4.72727 6.58261 4.78474 6.44387 4.88703 6.34158C4.98933 6.23929 5.12806 6.18182 5.27273 6.18182ZM12.3636 5.09091H8C7.85534 5.09091 7.7166 5.14838 7.61431 5.25067C7.51201 5.35296 7.45455 5.4917 7.45455 5.63636V8.90909H3.09091V4.54545C3.09091 4.40079 3.03344 4.26205 2.93115 4.15976C2.82886 4.05747 2.69012 4 2.54545 4C2.40079 4 2.26205 4.05747 2.15976 4.15976C2.05747 4.26205 2 4.40079 2 4.54545V11.6364C2 11.781 2.05747 11.9198 2.15976 12.0221C2.26205 12.1244 2.40079 12.1818 2.54545 12.1818C2.69012 12.1818 2.82886 12.1244 2.93115 12.0221C3.03344 11.9198 3.09091 11.781 3.09091 11.6364V10H12.9091V11.6364C12.9091 11.781 12.9666 11.9198 13.0689 12.0221C13.1711 12.1244 13.3099 12.1818 13.4545 12.1818C13.5992 12.1818 13.7379 12.1244 13.8402 12.0221C13.9425 11.9198 14 11.781 14 11.6364V6.72727C14 6.29328 13.8276 5.87707 13.5207 5.57019C13.2138 5.26331 12.7976 5.09091 12.3636 5.09091ZM12.9091 8.90909H8.54545V6.18182H12.3636C12.5083 6.18182 12.647 6.23929 12.7493 6.34158C12.8516 6.44387 12.9091 6.58261 12.9091 6.72727V8.90909Z" fill="#222222"/>
<path d="M39.95 9.32047C39.2431 9.32047 38.5363 9.61153 38.0789 10.1521C37.6631 10.651 36.9147 9.98575 37.3305 9.48679C37.9958 8.73836 38.9521 8.32256 39.95 8.32256C40.9479 8.32256 41.9042 8.73836 42.5695 9.48679C42.9853 9.98575 42.2369 10.651 41.8211 10.1521C41.3637 9.61153 40.6569 9.32047 39.95 9.32047ZM39.95 12.8132C39.4095 12.8132 38.9521 12.3558 38.9521 11.8153C38.9521 11.2747 39.4095 10.8173 39.95 10.8173C40.4905 10.8173 40.9479 11.2747 40.9479 11.8153C40.9479 12.3558 40.4905 12.8132 39.95 12.8132ZM39.95 6.8257C38.6195 6.8257 37.4136 7.28307 36.4573 8.2394C36.0415 8.6552 35.2515 8.03151 35.7505 7.53255C36.8731 6.4099 38.37 5.82779 39.95 5.82779C41.53 5.82779 43.0269 6.4099 44.1495 7.53255C44.6485 8.03151 43.8585 8.6552 43.4427 8.2394C42.4864 7.28307 41.2805 6.8257 39.95 6.8257ZM39.95 4.33092C38.0373 4.33092 36.2494 5.03777 34.8773 6.32674C34.3783 6.78412 33.6715 6.07726 34.1704 5.61989C35.792 4.12302 37.7879 3.33301 39.95 3.33301C42.1121 3.33301 44.108 4.12302 45.7296 5.61989C46.2285 6.07726 45.5217 6.78412 45.0227 6.32674C43.6506 5.03777 41.8627 4.33092 39.95 4.33092Z" fill="#222222"/>
<g clip-path="url(#clip0_46_880)">
<path fill-rule="evenodd" clip-rule="evenodd" d="M67.7564 6.28816L67.9334 5.75725H67.6364C67.3685 5.75725 67.1515 5.54028 67.1515 5.2724C67.1515 5.00452 67.3685 4.78755 67.6364 4.78755C67.9334 4.78755 68.2565 4.78755 68.2565 4.78755C68.2565 4.78755 68.4878 4.09374 68.631 3.66465C68.697 3.46659 68.8822 3.33301 69.0909 3.33301C70.2223 3.33301 73.7777 3.33301 74.9091 3.33301C75.1178 3.33301 75.3031 3.46659 75.369 3.66465L75.7435 4.78755H76.3637C76.6315 4.78755 76.8485 5.00452 76.8485 5.2724C76.8485 5.54028 76.6315 5.75725 76.3637 5.75725H76.0667L76.2437 6.28816C76.8703 6.4501 77.3334 7.01931 77.3334 7.69664V12.0603C77.3334 12.3282 77.1164 12.5451 76.8485 12.5451C76.5523 12.5451 76.1751 12.5451 75.8788 12.5451C75.6109 12.5451 75.394 12.3282 75.394 12.0603V11.5754H68.6061V12.0603C68.6061 12.3282 68.3891 12.5451 68.1212 12.5451C67.825 12.5451 67.4478 12.5451 67.1515 12.5451C66.8837 12.5451 66.6667 12.3282 66.6667 12.0603C66.6667 11.1381 66.6667 9.09834 66.6667 7.69664C66.6667 7.01931 67.1297 6.4501 67.7564 6.28816ZM68.6061 8.18149C68.874 8.18149 69.0909 8.39846 69.0909 8.66634C69.0909 8.93422 68.874 9.15119 68.6061 9.15119C68.1831 9.15119 67.6364 9.15119 67.6364 9.15119V10.6057H69.2761C69.2761 10.6057 69.8458 9.46658 70.1118 8.93446C70.194 8.7701 70.3617 8.66634 70.5455 8.66634C71.2083 8.66634 72.7918 8.66634 73.4546 8.66634C73.6383 8.66634 73.8061 8.7701 73.8883 8.93446C74.1542 9.46658 74.7239 10.6057 74.7239 10.6057H76.3637V9.15119H75.394C75.1261 9.15119 74.9091 8.93422 74.9091 8.66634C74.9091 8.39846 75.1261 8.18149 75.394 8.18149C75.817 8.18149 76.3637 8.18149 76.3637 8.18149V7.69664C76.3637 7.42877 76.1467 7.2118 75.8788 7.2118C74.3511 7.2118 69.649 7.2118 68.1212 7.2118C67.8534 7.2118 67.6364 7.42877 67.6364 7.69664V8.18149H68.6061ZM73.1549 9.63604H70.8451L70.3603 10.6057H73.6398L73.1549 9.63604ZM69.4405 4.3027L68.794 6.2421H75.2061L74.5595 4.3027H69.4405Z" fill="#222222"/>
</g>
<path d="M108.832 10.3689L107.408 9.55243L108.646 9.00868C108.818 8.93293 108.897 8.73118 108.822 8.55818C108.748 8.39081 108.54 8.30868 108.371 8.38243L106.67 9.12956L104.687 7.99231L106.661 6.85306L108.381 7.60206C108.556 7.67731 108.758 7.59118 108.83 7.42456C108.905 7.25156 108.825 7.05006 108.653 6.97531L107.397 6.42831L108.828 5.60206C108.907 5.55643 108.963 5.48268 108.987 5.39443C109.01 5.30618 108.998 5.21418 108.952 5.13518C108.861 4.97868 108.643 4.91918 108.486 5.01005L107.064 5.83068L107.216 4.48743C107.227 4.3963 107.201 4.30668 107.144 4.23493C107.087 4.16368 107.006 4.11893 106.916 4.10905C106.725 4.08643 106.557 4.22468 106.538 4.41105L106.345 6.25618L104.375 7.40206V5.12668L105.866 4.01268C105.936 3.96093 105.982 3.88443 105.995 3.79718C106.009 3.70605 105.985 3.61055 105.929 3.53505C105.82 3.38743 105.612 3.35355 105.463 3.46343L104.375 4.27505V2.62568C104.375 2.42443 104.177 2.28418 103.999 2.28418C103.822 2.28418 103.625 2.42443 103.625 2.62568V4.26505L102.553 3.4633C102.407 3.35443 102.193 3.38743 102.084 3.53493C102.027 3.61193 102.002 3.70893 102.016 3.8008C102.029 3.88668 102.074 3.9618 102.143 4.01193L103.625 5.11618V7.40093L101.685 6.28018L101.478 4.4338C101.458 4.26155 101.314 4.13168 101.144 4.13168C101.13 4.13168 101.116 4.13243 101.103 4.13418C100.919 4.1553 100.785 4.32468 100.804 4.5133L100.962 5.85681L99.5071 5.02218C99.4556 4.99281 99.3971 4.97718 99.338 4.97718C99.2157 4.97718 99.1022 5.04293 99.0417 5.14893C98.9489 5.3108 99.005 5.5198 99.168 5.6153L100.632 6.45506L99.3782 7.00581C99.2945 7.04256 99.2301 7.10955 99.1972 7.19443C99.1641 7.27943 99.1662 7.37231 99.2029 7.45543C99.2749 7.62143 99.4762 7.70618 99.6527 7.63193L101.37 6.87793L103.317 7.99418L101.366 9.12056L99.6632 8.37893C99.4941 8.30556 99.2869 8.38793 99.2139 8.55581C99.1384 8.72818 99.2176 8.93006 99.3906 9.00606L100.63 9.54556L99.1769 10.3843C99.0147 10.4793 98.959 10.6887 99.0526 10.8511C99.1134 10.9563 99.2271 11.0217 99.3489 11.0217C99.4095 11.0217 99.4687 11.0056 99.5191 10.9759L100.982 10.1316L100.826 11.4943C100.816 11.5852 100.842 11.6744 100.9 11.7459C100.957 11.8171 101.038 11.8619 101.125 11.8714C101.139 11.8733 101.153 11.8737 101.167 11.8737C101.341 11.8737 101.487 11.7434 101.506 11.5697L101.702 9.70618L103.625 8.58781V10.8578L102.304 11.9624C102.163 12.0806 102.147 12.2962 102.268 12.4416C102.331 12.5199 102.431 12.5667 102.536 12.5667C102.63 12.5667 102.693 12.5262 102.741 12.4886L103.625 11.7469V13.3734C103.625 13.5747 103.822 13.7149 103.999 13.7149C104.177 13.7149 104.375 13.5747 104.375 13.3734V11.7359L105.273 12.4901C105.422 12.6104 105.625 12.5819 105.739 12.4431C105.797 12.3739 105.827 12.2881 105.825 12.2009C105.822 12.1063 105.781 12.0214 105.71 11.9621L104.375 10.8466V8.58243L106.338 9.71693L106.547 11.5807C106.567 11.7526 106.711 11.8822 106.882 11.8822C106.898 11.8822 106.908 11.8813 106.919 11.8797C107.009 11.8698 107.089 11.8251 107.146 11.7541C107.203 11.6823 107.229 11.5924 107.218 11.5011L107.06 10.1402L108.492 10.9616C108.544 10.9912 108.602 11.0068 108.662 11.0068C108.784 11.0068 108.898 10.9409 108.958 10.8349C109.051 10.6724 108.995 10.4633 108.832 10.3689Z" fill="#222222"/>
<path d="M134.051 7.17525L138.04 9.47828M135.191 4.50942L133.795 3.70336C133.63 3.60796 133.419 3.66457 133.323 3.8298L130.79 8.21766C130.694 8.38291 130.751 8.59417 130.916 8.68956L132.312 9.49562C132.478 9.59102 132.689 9.53442 132.784 9.36918L135.318 4.98132C135.413 4.81609 135.356 4.60481 135.191 4.50942ZM141.175 7.96396L139.778 7.1579C139.613 7.0625 139.402 7.11912 139.307 7.28435L136.773 11.6722C136.678 11.8375 136.734 12.0487 136.9 12.1441L138.296 12.9502C138.461 13.0456 138.672 12.989 138.768 12.8237L141.301 8.43586C141.396 8.27063 141.34 8.05936 141.175 7.96396ZM129.87 6.35679L131.252 3.96341C131.347 3.79818 131.558 3.74157 131.723 3.83696L132.621 4.35514C132.786 4.45054 132.843 4.66181 132.747 4.82704L131.366 7.22042C131.27 7.38567 131.059 7.44226 130.894 7.34687L129.996 6.82869C129.831 6.73329 129.774 6.52203 129.87 6.35679ZM140.839 12.6901L142.221 10.2967C142.317 10.1315 142.26 9.92024 142.095 9.82484L141.197 9.30666C141.032 9.21126 140.821 9.26788 140.725 9.4331L139.343 11.8265C139.248 11.9917 139.305 12.203 139.47 12.2984L140.367 12.8166C140.533 12.912 140.744 12.8554 140.839 12.6901Z" stroke="#222222" stroke-linecap="round" stroke-linejoin="round"/>
<g clip-path="url(#clip1_46_880)">
<path d="M165.333 8.66667V11.3333M170.667 3.33333V3.66667C170.667 4.02029 170.807 4.35943 171.057 4.60948C171.307 4.85952 171.646 5 172 5C172.354 5 172.693 5.14048 172.943 5.39052C173.193 5.64057 173.333 5.97971 173.333 6.33333V6.66667M162 2L174 14M171.333 11.3333H162.667C162.49 11.3333 162.32 11.2631 162.195 11.1381C162.07 11.013 162 10.8435 162 10.6667V9.33333C162 9.15652 162.07 8.98695 162.195 8.86193C162.32 8.7369 162.49 8.66667 162.667 8.66667H168.667M171.333 8.66667H173.333C173.51 8.66667 173.68 8.7369 173.805 8.86193C173.93 8.98695 174 9.15652 174 9.33333V10.6667C174 10.8533 173.923 11.022 173.8 11.1427L171.333 8.66667Z" stroke="#222222" stroke-linecap="round" stroke-linejoin="round"/>
</g>
<path d="M200.36 9.87301L195.887 4.99301H204.833L200.36 9.87301ZM200.36 9.87301C200.36 10.2797 200.36 13.533 200.36 13.533M198.733 13.533H201.987M197.513 6.61967H203.207M197.107 2.95967L199.953 6.61967M194.667 4.17967L199.14 1.33301H195.887L194.667 4.17967Z" stroke="#222222" stroke-miterlimit="10" stroke-linecap="round" stroke-linejoin="round"/>
<defs>
<clipPath id="clip0_46_880">
<rect width="16" height="16" fill="white" transform="translate(64)"/>
</clipPath>
<clipPath id="clip1_46_880">
<rect width="16" height="16" fill="white" transform="translate(160)"/>
</clipPath>
</defs>
</svg>
